<?xml version="1.0" standalone="no"?><!DOCTYPE svg PUBLIC "-//W3C//DTD SVG 1.1//EN" "http://www.w3.org/Graphics/SVG/1.1/DTD/svg11.dtd"><svg t="1533049503605" class="icon" style="" viewBox="0 0 1024 1024" version="1.1" xmlns="http://www.w3.org/2000/svg" p-id="3152" xmlns:xlink="http://www.w3.org/1999/xlink" width="200" height="200"><defs><style type="text/css"></style></defs><path d="M510.4 702.4h14.4c8-3.2 201.6-75.2 201.6-251.2 0-64-51.2-115.2-115.2-115.2-38.4 0-72 17.6-92.8 46.4-22.4-27.2-57.6-46.4-94.4-46.4-64 0-115.2 51.2-115.2 115.2 0 176 192 248 201.6 251.2z m-86.4-326.4c35.2 0 65.6 24 73.6 59.2h38.4c8-35.2 38.4-59.2 73.6-59.2 41.6 0 75.2 33.6 75.2 75.2 0 131.2-136 196.8-168 209.6-32-14.4-168-80-168-209.6 0-40 33.6-75.2 75.2-75.2z" fill="#bfbfbf" p-id="3153"></path><path d="M300.8 812.8h424c48 0 88-40 88-88V300.8c0-48-40-88-88-88H300.8c-48 0-88 40-88 88v424c0 48 38.4 88 88 88z m-48-512c0-25.6 20.8-48 48-48h424c25.6 0 48 20.8 48 48v424c0 25.6-20.8 48-48 48H300.8c-25.6 0-48-20.8-48-48V300.8z" fill="#bfbfbf" p-id="3154"></path></svg>